<svg width="50" height="49" viewBox="0 0 50 49" fill="none" xmlns="http://www.w3.org/2000/svg">
<path d="M9.02375 24.5967L25 40.8333L40.9762 24.5967C42.7522 22.7918 43.75 20.3437 43.75 17.7912C43.75 12.4757 39.5101 8.16666 34.2798 8.16666C31.7682 8.16666 29.3594 9.18066 27.5834 10.9856L25 13.6111L22.4166 10.9856C20.6406 9.18067 18.2318 8.16666 15.7202 8.16666C10.4899 8.16666 6.25 12.4757 6.25 17.7912C6.25 20.3437 7.24774 22.7918 9.02375 24.5967Z" fill="black" fill-opacity="0.15"/>
<path d="M9.02375 24.5967L25 40.8333L40.9762 24.5967C42.7522 22.7918 43.75 20.3437 43.75 17.7912C43.75 12.4757 39.5101 8.16666 34.2798 8.16666C31.7682 8.16666 29.3594 9.18066 27.5834 10.9856L25 13.6111L22.4166 10.9856C20.6406 9.18066 18.2318 8.16666 15.7202 8.16666C10.4899 8.16666 6.25 12.4757 6.25 17.7912C6.25 20.3437 7.24774 22.7918 9.02375 24.5967Z" stroke="black" stroke-width="2" stroke-linecap="round" stroke-linejoin="round"/>
</svg>
