<svg width="52" height="54" viewBox="0 0 52 54" fill="none" xmlns="http://www.w3.org/2000/svg">
<g filter="url(#filter0_d_4470_92)">
<path d="M18.1999 31.85L33.7999 17.15M19.4001 18.2716L19.3694 18.2424M32.6395 30.8755L32.6089 30.8463M17.1661 8.95745L14.9607 9.08402C12.0976 9.24833 9.81451 11.3997 9.64014 14.0976L9.50582 16.1758C9.42877 17.368 8.9305 18.5015 8.0904 19.3958L6.62587 20.9549C4.72464 22.9788 4.72464 26.0212 6.62587 28.0451L8.0904 29.6042C8.9305 30.4985 9.42877 31.632 9.50582 32.8242L9.64014 34.9024C9.81451 37.6003 12.0976 39.7517 14.9607 39.916L17.1661 40.0425C18.4313 40.1151 19.6342 40.5847 20.5833 41.3763L22.2378 42.7563C24.3856 44.5479 27.6143 44.5479 29.7621 42.7563L31.4166 41.3763C32.3657 40.5847 33.5686 40.1151 34.8338 40.0425L37.0392 39.916C39.9023 39.7517 42.1854 37.6003 42.3598 34.9024L42.4941 32.8242C42.5711 31.632 43.0694 30.4985 43.9095 29.6042L45.374 28.0451C47.2753 26.0212 47.2753 22.9788 45.374 20.9549L43.9095 19.3958C43.0694 18.5015 42.5711 17.368 42.4941 16.1758L42.3598 14.0976C42.1854 11.3997 39.9023 9.24833 37.0392 9.08402L34.8338 8.95745C33.5686 8.88485 32.3657 8.41532 31.4166 7.62368L29.7621 6.24365C27.6143 4.45211 24.3856 4.45211 22.2378 6.24365L20.5833 7.62368C19.6342 8.41532 18.4313 8.88485 17.1661 8.95745Z" stroke="black" stroke-width="2" stroke-linecap="round"/>
</g>
<defs>
<filter id="filter0_d_4470_92" x="-4" y="0" width="60" height="57" filterUnits="userSpaceOnUse" color-interpolation-filters="sRGB">
<feFlood flood-opacity="0" result="BackgroundImageFix"/>
<feColorMatrix in="SourceAlpha" type="matrix" values="0 0 0 0 0 0 0 0 0 0 0 0 0 0 0 0 0 0 127 0" result="hardAlpha"/>
<feOffset dy="4"/>
<feGaussianBlur stdDeviation="2"/>
<feComposite in2="hardAlpha" operator="out"/>
<feColorMatrix type="matrix" values="0 0 0 0 0 0 0 0 0 0 0 0 0 0 0 0 0 0 0.25 0"/>
<feBlend mode="normal" in2="BackgroundImageFix" result="effect1_dropShadow_4470_92"/>
<feBlend mode="normal" in="SourceGraphic" in2="effect1_dropShadow_4470_92" result="shape"/>
</filter>
</defs>
</svg>
